<svg width="23" height="23" viewBox="0 0 23 23" fill="none" xmlns="http://www.w3.org/2000/svg">
<path d="M2.35173 7.60869C2.6213 7.3392 2.98687 7.18781 3.36804 7.18781C3.74921 7.18781 4.11478 7.3392 4.38435 7.60869L11.5 14.7243L18.6156 7.60869C18.8867 7.34683 19.2498 7.20194 19.6267 7.20522C20.0036 7.20849 20.3642 7.35967 20.6307 7.6262C20.8972 7.89272 21.0484 8.25326 21.0517 8.63017C21.0549 9.00708 20.9101 9.37019 20.6482 9.64131L12.5163 17.7732C12.2467 18.0427 11.8811 18.1941 11.5 18.1941C11.1188 18.1941 10.7532 18.0427 10.4837 17.7732L2.35173 9.64131C2.08224 9.37174 1.93085 9.00617 1.93085 8.625C1.93085 8.24382 2.08224 7.87826 2.35173 7.60869Z" fill="#181818"/>
</svg>
