<svg width="36" height="36" viewBox="0 0 36 36" fill="none" xmlns="http://www.w3.org/2000/svg">
<path d="M29.31 7.62C27.806 6.12664 26.0189 4.94872 24.0536 4.15536C22.0882 3.36201 19.9842 2.96921 17.865 3C13.8868 2.99006 10.0675 4.56087 7.24742 7.36688C4.42734 10.1729 2.83745 13.9843 2.8275 17.9625C2.81755 21.9408 4.38837 25.76 7.19438 28.5801C10.0004 31.4002 13.8118 32.9901 17.79 33C18.6472 33.0146 19.4851 32.7441 20.1719 32.231C20.8588 31.7179 21.3558 30.9912 21.585 30.165C21.7311 29.5684 21.7296 28.9451 21.5806 28.3492C21.4316 27.7533 21.1397 27.2027 20.73 26.745C20.6353 26.6372 20.5735 26.5045 20.5519 26.3626C20.5304 26.2207 20.55 26.0757 20.6084 25.9446C20.6668 25.8135 20.7616 25.702 20.8816 25.6232C21.0015 25.5444 21.1415 25.5016 21.285 25.5H23.76C26.0894 25.5109 28.3367 24.6401 30.0507 23.0625C31.7646 21.4849 32.8182 19.3173 33 16.995C33.0558 15.2634 32.7573 13.5387 32.1228 11.9266C31.4882 10.3145 30.5311 8.849 29.31 7.62ZM10.26 22.11C9.89171 22.3603 9.45743 22.4957 9.01214 22.499C8.56686 22.5024 8.13059 22.3735 7.75859 22.1287C7.38659 21.884 7.09558 21.5344 6.9224 21.1241C6.74922 20.7139 6.70167 20.2615 6.78576 19.8242C6.86986 19.3869 7.08181 18.9844 7.3948 18.6677C7.70778 18.3509 8.10771 18.1341 8.54396 18.0448C8.98021 17.9555 9.43315 17.9976 9.84544 18.1659C10.2577 18.3341 10.6108 18.621 10.86 18.99C11.027 19.2338 11.144 19.5082 11.2042 19.7975C11.2644 20.0867 11.2667 20.385 11.2109 20.6752C11.1551 20.9653 11.0424 21.2415 10.8791 21.4878C10.7159 21.7341 10.5055 21.9456 10.26 22.11ZM12.45 13.875C12.2366 14.2703 11.9097 14.5926 11.5115 14.8005C11.1133 15.0084 10.662 15.0924 10.2156 15.0416C9.76932 14.9908 9.34841 14.8075 9.00713 14.5154C8.66584 14.2233 8.41981 13.8358 8.30069 13.4026C8.18158 12.9695 8.19485 12.5106 8.33879 12.0851C8.48272 11.6596 8.75074 11.2868 9.10833 11.015C9.46592 10.7431 9.8967 10.5844 10.3452 10.5595C10.7937 10.5345 11.2395 10.6444 11.625 10.875C12.1225 11.1725 12.4859 11.6505 12.6396 12.2094C12.7933 12.7683 12.7254 13.365 12.45 13.875ZM16.5 10.5C16.055 10.5 15.62 10.368 15.25 10.1208C14.88 9.87357 14.5916 9.52217 14.4213 9.11104C14.251 8.69991 14.2064 8.24751 14.2932 7.81105C14.38 7.37459 14.5943 6.97368 14.909 6.65901C15.2237 6.34434 15.6246 6.13005 16.061 6.04323C16.4975 5.95642 16.9499 6.00098 17.361 6.17127C17.7722 6.34157 18.1236 6.62996 18.3708 6.99997C18.618 7.36998 18.75 7.80499 18.75 8.25C18.75 8.84674 18.5129 9.41904 18.091 9.84099C17.669 10.2629 17.0967 10.5 16.5 10.5ZM25.125 11.7C24.7395 11.9306 24.2937 12.0405 23.8452 12.0155C23.3967 11.9906 22.9659 11.8319 22.6083 11.56C22.2507 11.2882 21.9827 10.9155 21.8388 10.4899C21.6948 10.0644 21.6816 9.60552 21.8007 9.17238C21.9198 8.73924 22.1658 8.35168 22.5071 8.05958C22.8484 7.76749 23.2693 7.58424 23.7156 7.53342C24.162 7.48261 24.6133 7.56656 25.0115 7.77447C25.4097 7.98238 25.7366 8.30472 25.95 8.7C26.2254 9.21005 26.2933 9.80669 26.1396 10.3656C25.9859 10.9245 25.6225 11.4025 25.125 11.7Z" fill="#F4B840"/>
</svg>
