<svg width="36" height="36" viewBox="0 0 36 36" fill="none" xmlns="http://www.w3.org/2000/svg">
<g clip-path="url(#clip0_1_660)">
<path d="M27.93 1C27.0403 1 26.1842 1.32544 25.5295 1.99345L15.7767 11.9622L25.261 21.6398L35.0306 11.6882C36.3231 10.3521 36.3231 8.19395 35.0306 6.84081L30.2633 1.99345C29.6086 1.32544 28.7693 1 27.93 1V1ZM14.1652 13.5894L4.16057 23.798C2.85124 25.134 2.85124 27.2922 4.19415 28.6796C2.14622 30.7864 0.0647158 32.8932 -2 35H7.50105L8.94467 33.527C10.254 34.8287 12.3523 34.8116 13.6616 33.4927L23.6495 23.2841" fill="#F4B840"/>
</g>
<defs>
<clipPath id="clip0_1_660">
<rect width="36" height="36" fill="white"/>
</clipPath>
</defs>
</svg>
